<?xml version="1.0" encoding="UTF-8"?>
<svg xmlns="http://www.w3.org/2000/svg" version="1.1" viewBox="0 0 1500 1500">
  <defs>
    <style>
      .cls-1 {
        fill: #317c47;
      }

      .cls-2 {
        fill: #267447;
      }

      .cls-3 {
        fill: #3d8447;
      }

      .cls-4 {
        fill: #67a744;
      }

      .cls-5 {
        fill: #5d9e46;
      }

      .cls-6 {
        fill: #72b143;
      }

      .cls-7 {
        fill: #488c47;
      }

      .cls-8 {
        fill: #006545;
      }

      .cls-9 {
        fill: #529446;
      }

      .cls-10 {
        fill: #7ebe42;
      }

      .cls-11 {
        fill: #176c46;
      }
    </style>
  </defs>
  <!-- Generator: Adobe Illustrator 28.7.1, SVG Export Plug-In . SVG Version: 1.2.0 Build 142)  -->
  <g>
    <g id="Layer_1">
      <g>
        <g>
          <path class="cls-10" d="M2725.68,2315.27,582.72,583.31c-39.71,21.1-111.13,58.37-118.44,94.3-2.28,11.2,8.44,24.32,21.05,24.49,25.51.34,77.1-56.08,97.39-118.79ZM1094.74,597.09s-383.71-91.55-488.73-25.52c-3.24,2.03-15.66,69.88-60.33,113.74-19.74,19.38-25.78,24.34-42.84,30.93-15.13,5.84-31.44,1.81-40.16-3.77-10.34-6.62-14.12-18.94-14.12-32.96,0-38.93,64.31-79.77,137.47-116.39l29.91-104.37c-12.76,19.04-66.54,67.12-90.84,81.76-24.3,14.65-46.88,21.97-67.73,21.97-34.02,0-62.32-15.22-84.89-45.66-22.58-30.44-33.87-68.98-33.87-115.63,0-49.16,12.76-95.76,38.27-139.8,25.51-44.03,59.02-79.28,100.53-105.75,41.51-26.46,81.7-39.7,120.58-39.7,34.82,0,63.12,10.25,84.89,30.75,21.76,20.5,32.65,47.07,32.65,79.7,0,35.15-12.25,66.11-36.75,92.88-24.5,26.78-52.11,36.81-83.75,33.66-17.41-1.74-29.89-4.83-42.87-14.42-14.17-10.47-11.75-9.93-16.09-16.98-5.21-8.47.97-14.85,2.67-15.59,17.47-7.64,21.37-3.04,16.49,9.4,1.71,3.41-27.68,1.51-16.49-9.4,4.78-4.66,13.59-8.76,18.07-3.14,22.59,28.33,33.37,26.19,54.16,25.45,19.27-.69,49.56-19.34,63.81-47.38,16.03-31.54,16.62-59.05,8.64-83.77-5.63-17.46-19.31-33.99-37.92-44.98-13.99-8.26-34.75-12.67-52.97-12.67-27.34,0-60.32,8.98-90.58,27.77-34.95,21.71-61.38,52.1-86.4,87.89-31.27,44.72-48.9,93.65-50.47,136.99-2.66,73.47,18.61,96.13,25.92,109.86,6.78,8.74,36.55,48.07,103.24,25.75,37.73-12.63,87.48-53.23,123.7-111.18l31.57-1.24c-5.65,20.36.06.02-5.65,20.36-4.14,14.75-5.02,16.59-7.31,23.35-5.65,16.65-17.87,58.28-28.41,96.13,118.33-59.83,486.62,41.93,486.62,41.93h0ZM2667.14,2315.27,2667.14,2315.27"/>
          <g>
            <path class="cls-10" d="M800.96,510.73c.21-.4.04-.87-.37-1.09-31.81-16.8-84.33,3.22-90.18,12.12-5.19,7.9-4.7,9.89-5.11,12.3,0,.02,0,.04,0,.06-1.06,11.45,1.34,20.95,3.12,26.17.04.11.11.22.2.31,3.88,3.96,2.77,3.53,5.56,5.85.03.02.06.04.08.06,7.74,5.27,9.95,4.21,16.17,8.21,3.46,2.23,41.75,17.71,72.02-1.34.4-.25.54-.74.31-1.12-7.68-12.59-25.13-23.23-47.91-27.83-.93-.19-.97-1.35-.06-1.62,22.43-6.65,39.22-18.83,46.18-32.08Z"/>
            <path class="cls-10" d="M881.08,527.58c.21-.29.16-.69-.13-.92-21.6-17.86-64.03-9.23-69.71-2.95-5.03,5.57-4.95,7.23-5.6,9.1,0,.01,0,.03-.01.04-2.42,8.99-1.96,16.9-1.36,21.32.01.1.05.19.1.27,2.36,3.7,1.59,3.21,3.36,5.45.02.02.04.04.05.06,5.08,5.29,6.91,4.75,11.03,8.82,2.29,2.26,28.96,19.97,54.48,9.01.34-.15.51-.52.39-.85-4-11.12-15.64-22.06-32.16-28.91-.67-.28-.54-1.21.18-1.3,17.86-2.17,32.24-9.53,39.37-19.13Z"/>
            <path class="cls-10" d="M956.47,545.83c.22-.24.2-.6-.05-.84-19.13-17.95-59.99-14.22-65.84-9.15-5.19,4.5-5.23,5.99-5.99,7.59,0,.01-.01.02-.02.04-2.97,7.79-3.13,14.9-2.89,18.89,0,.09.03.17.08.25,1.96,3.52,1.26,3.01,2.77,5.17.01.02.03.04.05.06,4.42,5.19,6.19,4.88,9.79,8.89,2,2.23,25.94,20.52,50.96,13.13.33-.1.52-.41.44-.72-2.96-10.29-13.17-21.14-28.31-28.8-.62-.31-.42-1.13.27-1.14,17.09-.27,31.27-5.49,38.75-13.39Z"/>
            <path class="cls-10" d="M1011.4,561.44c.17-.18.15-.45-.04-.62-14.22-13.35-44.61-10.58-48.96-6.8-3.86,3.35-3.89,4.45-4.45,5.65,0,0,0,.02-.01.03-2.21,5.79-2.33,11.08-2.15,14.05,0,.06.03.13.06.19,1.46,2.62.94,2.24,2.06,3.85.01.01.02.03.03.05,3.29,3.86,4.6,3.63,7.28,6.61,1.49,1.66,19.29,15.26,37.89,9.77.25-.07.39-.31.32-.54-2.2-7.65-9.79-15.72-21.05-21.42-.46-.23-.31-.84.2-.85,12.7-.2,23.25-4.08,28.81-9.96Z"/>
            <path class="cls-10" d="M1052.66,574.95c.11-.12.1-.3-.03-.42-9.59-9-30.09-7.13-33.03-4.59-2.6,2.26-2.63,3-3,3.81,0,0,0,.01,0,.02-1.49,3.91-1.57,7.47-1.45,9.48,0,.04.02.09.04.13.98,1.77.63,1.51,1.39,2.6,0,0,.02.02.02.03,2.22,2.61,3.1,2.45,4.91,4.46,1,1.12,13.01,10.3,25.56,6.59.17-.05.26-.21.22-.36-1.48-5.16-6.6-10.6-14.2-14.45-.31-.16-.21-.57.14-.57,8.57-.13,15.69-2.75,19.44-6.72Z"/>
            <path class="cls-10" d="M1088.54,587.17c.09-.09.08-.24-.02-.33-7.59-7.13-23.82-5.65-26.14-3.63-2.06,1.79-2.08,2.38-2.38,3.01,0,0,0,0,0,.01-1.18,3.09-1.24,5.91-1.15,7.5,0,.03.01.07.03.1.78,1.4.5,1.19,1.1,2.05,0,0,.01.02.02.02,1.75,2.06,2.46,1.94,3.89,3.53.79.89,10.3,8.15,20.23,5.21.13-.04.21-.16.17-.29-1.17-4.09-5.23-8.39-11.24-11.43-.24-.12-.17-.45.11-.45,6.78-.11,12.42-2.18,15.38-5.32Z"/>
          </g>
        </g>
        <g>
          <path class="cls-6" d="M2724.58,2315.67,581.62,583.71c-39.71,21.1-111.13,58.37-118.44,94.3-2.28,11.2,8.44,24.32,21.05,24.49,25.51.34,77.1-56.08,97.39-118.79ZM1093.64,597.49s-383.71-91.55-488.73-25.52c-3.24,2.03-15.66,69.88-60.33,113.74-19.74,19.38-25.78,24.34-42.84,30.93-15.13,5.84-31.44,1.81-40.16-3.77-10.34-6.62-14.12-18.94-14.12-32.96,0-38.93,64.31-79.77,137.47-116.39l29.91-104.37c-12.76,19.04-66.54,67.12-90.84,81.76-24.3,14.65-46.88,21.97-67.73,21.97-34.02,0-62.32-15.22-84.89-45.66-22.58-30.44-33.87-68.98-33.87-115.63,0-49.16,12.76-95.76,38.27-139.8,25.51-44.03,59.02-79.28,100.53-105.75,41.51-26.46,81.7-39.7,120.58-39.7,34.82,0,63.12,10.25,84.89,30.75,21.76,20.5,32.65,47.07,32.65,79.7,0,35.15-12.25,66.11-36.75,92.88-24.5,26.78-52.11,36.81-83.75,33.66-17.41-1.74-29.89-4.83-42.87-14.42-14.17-10.47-11.75-9.93-16.09-16.98-5.21-8.47.97-14.85,2.67-15.59,17.47-7.64,21.37-3.04,16.49,9.4,1.71,3.41-27.68,1.51-16.49-9.4,4.78-4.66,13.59-8.76,18.07-3.14,22.59,28.33,33.37,26.19,54.16,25.45,19.27-.69,49.56-19.34,63.81-47.38,16.03-31.54,16.62-59.05,8.64-83.77-5.63-17.46-19.31-33.99-37.92-44.98-13.99-8.26-34.75-12.67-52.97-12.67-27.34,0-60.32,8.98-90.58,27.77-34.95,21.71-61.38,52.1-86.4,87.89-31.27,44.72-48.9,93.65-50.47,136.99-2.66,73.47,18.61,96.13,25.92,109.86,6.78,8.74,36.55,48.07,103.24,25.75,37.73-12.63,87.48-53.23,123.7-111.18l31.57-1.24c-5.65,20.36.06.02-5.65,20.36-4.14,14.75-5.02,16.59-7.31,23.35-5.65,16.65-17.87,58.28-28.41,96.13,118.33-59.83,486.62,41.93,486.62,41.93h0ZM2666.04,2315.67,2666.04,2315.67"/>
          <g>
            <path class="cls-6" d="M799.86,511.13c.21-.4.04-.87-.37-1.09-31.81-16.8-84.33,3.22-90.18,12.12-5.19,7.9-4.7,9.89-5.11,12.3,0,.02,0,.04,0,.06-1.06,11.45,1.34,20.95,3.12,26.17.04.11.11.22.2.31,3.88,3.96,2.77,3.53,5.56,5.85.03.02.06.04.08.06,7.74,5.27,9.95,4.21,16.17,8.21,3.46,2.23,41.75,17.71,72.02-1.34.4-.25.54-.74.31-1.12-7.68-12.59-25.13-23.23-47.91-27.83-.93-.19-.97-1.35-.06-1.62,22.43-6.65,39.22-18.83,46.18-32.08Z"/>
            <path class="cls-6" d="M879.98,527.98c.21-.29.16-.69-.13-.92-21.6-17.86-64.03-9.23-69.71-2.95-5.03,5.57-4.95,7.23-5.6,9.1,0,.01,0,.03-.01.04-2.42,8.99-1.96,16.9-1.36,21.32.01.1.05.19.1.27,2.36,3.7,1.59,3.21,3.36,5.45.02.02.04.04.05.06,5.08,5.29,6.91,4.75,11.03,8.82,2.29,2.26,28.96,19.97,54.48,9.01.34-.15.51-.52.39-.85-4-11.12-15.64-22.06-32.16-28.91-.67-.28-.54-1.21.18-1.3,17.86-2.17,32.24-9.53,39.37-19.13Z"/>
            <path class="cls-6" d="M955.37,546.23c.22-.24.2-.6-.05-.84-19.13-17.95-59.99-14.22-65.84-9.15-5.19,4.5-5.23,5.99-5.99,7.59,0,.01-.01.02-.02.04-2.97,7.79-3.13,14.9-2.89,18.89,0,.09.03.17.08.25,1.96,3.52,1.26,3.01,2.77,5.17.01.02.03.04.05.06,4.42,5.19,6.19,4.88,9.79,8.89,2,2.23,25.94,20.52,50.96,13.13.33-.1.52-.41.44-.72-2.96-10.29-13.17-21.14-28.31-28.8-.62-.31-.42-1.13.27-1.14,17.09-.27,31.27-5.49,38.75-13.39Z"/>
            <path class="cls-6" d="M1010.3,561.84c.17-.18.15-.45-.04-.62-14.22-13.35-44.61-10.58-48.96-6.8-3.86,3.35-3.89,4.45-4.45,5.65,0,0,0,.02-.01.03-2.21,5.79-2.33,11.08-2.15,14.05,0,.06.03.13.06.19,1.46,2.62.94,2.24,2.06,3.85.01.01.02.03.03.05,3.29,3.86,4.6,3.63,7.28,6.61,1.49,1.66,19.29,15.26,37.89,9.77.25-.07.39-.31.32-.54-2.2-7.65-9.79-15.72-21.05-21.42-.46-.23-.31-.84.2-.85,12.7-.2,23.25-4.08,28.81-9.96Z"/>
            <path class="cls-6" d="M1051.56,575.35c.11-.12.1-.3-.03-.42-9.59-9-30.09-7.13-33.03-4.59-2.6,2.26-2.63,3-3,3.81,0,0,0,.01,0,.02-1.49,3.91-1.57,7.47-1.45,9.48,0,.04.02.09.04.13.98,1.77.63,1.51,1.39,2.6,0,0,.02.02.02.03,2.22,2.61,3.1,2.45,4.91,4.46,1,1.12,13.01,10.3,25.56,6.59.17-.05.26-.21.22-.36-1.48-5.16-6.6-10.6-14.2-14.45-.31-.16-.21-.57.14-.57,8.57-.13,15.69-2.75,19.44-6.72Z"/>
            <path class="cls-6" d="M1087.44,587.57c.09-.09.08-.24-.02-.33-7.59-7.13-23.82-5.65-26.14-3.63-2.06,1.79-2.08,2.38-2.38,3.01,0,0,0,0,0,.01-1.18,3.09-1.24,5.91-1.15,7.5,0,.03.01.07.03.1.78,1.4.5,1.19,1.1,2.05,0,0,.01.02.02.02,1.75,2.06,2.46,1.94,3.89,3.53.79.89,10.3,8.15,20.23,5.21.13-.04.21-.16.17-.29-1.17-4.09-5.23-8.39-11.24-11.43-.24-.12-.17-.45.11-.45,6.78-.11,12.42-2.18,15.38-5.32Z"/>
          </g>
        </g>
        <g>
          <path class="cls-4" d="M2723.48,2316.07,580.52,584.11c-39.71,21.1-111.13,58.37-118.44,94.3-2.28,11.2,8.44,24.32,21.05,24.49,25.51.34,77.1-56.08,97.39-118.79ZM1092.54,597.89s-383.71-91.55-488.73-25.52c-3.24,2.03-15.66,69.88-60.33,113.74-19.74,19.38-25.78,24.34-42.84,30.93-15.13,5.84-31.44,1.81-40.16-3.77-10.34-6.62-14.12-18.94-14.12-32.96,0-38.93,64.31-79.77,137.47-116.39l29.91-104.37c-12.76,19.04-66.54,67.12-90.84,81.76-24.3,14.65-46.88,21.97-67.73,21.97-34.02,0-62.32-15.22-84.89-45.66-22.58-30.44-33.87-68.98-33.87-115.63,0-49.16,12.76-95.76,38.27-139.8,25.51-44.03,59.02-79.28,100.53-105.75,41.51-26.46,81.7-39.7,120.58-39.7,34.82,0,63.12,10.25,84.89,30.75,21.76,20.5,32.65,47.07,32.65,79.7,0,35.15-12.25,66.11-36.75,92.88-24.5,26.78-52.11,36.81-83.75,33.66-17.41-1.74-29.89-4.83-42.87-14.42-14.17-10.47-11.75-9.93-16.09-16.98-5.21-8.47.97-14.85,2.67-15.59,17.47-7.64,21.37-3.04,16.49,9.4,1.71,3.41-27.68,1.51-16.49-9.4,4.78-4.66,13.59-8.76,18.07-3.14,22.59,28.33,33.37,26.19,54.16,25.45,19.27-.69,49.56-19.34,63.81-47.38,16.03-31.54,16.62-59.05,8.64-83.77-5.63-17.46-19.31-33.99-37.92-44.98-13.99-8.26-34.75-12.67-52.97-12.67-27.34,0-60.32,8.98-90.58,27.77-34.95,21.71-61.38,52.1-86.4,87.89-31.27,44.72-48.9,93.65-50.47,136.99-2.66,73.47,18.61,96.13,25.92,109.86,6.78,8.74,36.55,48.07,103.24,25.75,37.73-12.63,87.48-53.23,123.7-111.18l31.57-1.24c-5.65,20.36.06.02-5.65,20.36-4.14,14.75-5.02,16.59-7.31,23.35-5.65,16.65-17.87,58.28-28.41,96.13,118.33-59.83,486.62,41.93,486.62,41.93h0ZM2664.94,2316.07,2664.94,2316.07"/>
          <g>
            <path class="cls-4" d="M798.76,511.53c.21-.4.04-.87-.37-1.09-31.81-16.8-84.33,3.22-90.18,12.12-5.19,7.9-4.7,9.89-5.11,12.3,0,.02,0,.04,0,.06-1.06,11.45,1.34,20.95,3.12,26.17.04.11.11.22.2.31,3.88,3.96,2.77,3.53,5.56,5.85.03.02.06.04.08.06,7.74,5.27,9.95,4.21,16.17,8.21,3.46,2.23,41.75,17.71,72.02-1.34.4-.25.54-.74.31-1.12-7.68-12.59-25.13-23.23-47.91-27.83-.93-.19-.97-1.35-.06-1.62,22.43-6.65,39.22-18.83,46.18-32.08Z"/>
            <path class="cls-4" d="M878.88,528.38c.21-.29.16-.69-.13-.92-21.6-17.86-64.03-9.23-69.71-2.95-5.03,5.57-4.95,7.23-5.6,9.1,0,.01,0,.03-.01.04-2.42,8.99-1.96,16.9-1.36,21.32.01.1.05.19.1.27,2.36,3.7,1.59,3.21,3.36,5.45.02.02.04.04.05.06,5.08,5.29,6.91,4.75,11.03,8.82,2.29,2.26,28.96,19.97,54.48,9.01.34-.15.51-.52.39-.85-4-11.12-15.64-22.06-32.16-28.91-.67-.28-.54-1.21.18-1.3,17.86-2.17,32.24-9.53,39.37-19.13Z"/>
            <path class="cls-4" d="M954.27,546.63c.22-.24.2-.6-.05-.84-19.13-17.95-59.99-14.22-65.84-9.15-5.19,4.5-5.23,5.99-5.99,7.59,0,.01-.01.02-.02.04-2.97,7.79-3.13,14.9-2.89,18.89,0,.09.03.17.08.25,1.96,3.52,1.26,3.01,2.77,5.17.01.02.03.04.05.06,4.42,5.19,6.19,4.88,9.79,8.89,2,2.23,25.94,20.52,50.96,13.13.33-.1.52-.41.44-.72-2.96-10.29-13.17-21.14-28.31-28.8-.62-.31-.42-1.13.27-1.14,17.09-.27,31.27-5.49,38.75-13.39Z"/>
            <path class="cls-4" d="M1009.2,562.24c.17-.18.15-.45-.04-.62-14.22-13.35-44.61-10.58-48.96-6.8-3.86,3.35-3.89,4.45-4.45,5.65,0,0,0,.02-.01.03-2.21,5.79-2.33,11.08-2.15,14.05,0,.06.03.13.06.19,1.46,2.62.94,2.24,2.06,3.85.01.01.02.03.03.05,3.29,3.86,4.6,3.63,7.28,6.61,1.49,1.66,19.29,15.26,37.89,9.77.25-.07.39-.31.32-.54-2.2-7.65-9.79-15.72-21.05-21.42-.46-.23-.31-.84.2-.85,12.7-.2,23.25-4.08,28.81-9.96Z"/>
            <path class="cls-4" d="M1050.46,575.75c.11-.12.1-.3-.03-.42-9.59-9-30.09-7.13-33.03-4.59-2.6,2.26-2.63,3-3,3.81,0,0,0,.01,0,.02-1.49,3.91-1.57,7.47-1.45,9.48,0,.04.02.09.04.13.98,1.77.63,1.51,1.39,2.6,0,0,.02.02.02.03,2.22,2.61,3.1,2.45,4.91,4.46,1,1.12,13.01,10.3,25.56,6.59.17-.05.26-.21.22-.36-1.48-5.16-6.6-10.6-14.2-14.45-.31-.16-.21-.57.14-.57,8.57-.13,15.69-2.75,19.44-6.72Z"/>
            <path class="cls-4" d="M1086.34,587.97c.09-.09.08-.24-.02-.33-7.59-7.13-23.82-5.65-26.14-3.63-2.06,1.79-2.08,2.38-2.38,3.01,0,0,0,0,0,.01-1.18,3.09-1.24,5.91-1.15,7.5,0,.03.01.07.03.1.78,1.4.5,1.19,1.1,2.05,0,0,.01.02.02.02,1.75,2.06,2.46,1.94,3.89,3.53.79.89,10.3,8.15,20.23,5.21.13-.04.21-.16.17-.29-1.17-4.09-5.23-8.39-11.24-11.43-.24-.12-.17-.45.11-.45,6.78-.11,12.42-2.18,15.38-5.32Z"/>
          </g>
        </g>
        <g>
          <path class="cls-5" d="M2722.38,2316.47,579.42,584.51c-39.71,21.1-111.13,58.37-118.44,94.3-2.28,11.2,8.44,24.32,21.05,24.49,25.51.34,77.1-56.08,97.39-118.79ZM1091.44,598.29s-383.71-91.55-488.73-25.52c-3.24,2.03-15.66,69.88-60.33,113.74-19.74,19.38-25.78,24.34-42.84,30.93-15.13,5.84-31.44,1.81-40.16-3.77-10.34-6.62-14.12-18.94-14.12-32.96,0-38.93,64.31-79.77,137.47-116.39l29.91-104.37c-12.76,19.04-66.54,67.12-90.84,81.76-24.3,14.65-46.88,21.97-67.73,21.97-34.02,0-62.32-15.22-84.89-45.66-22.58-30.44-33.87-68.98-33.87-115.63,0-49.16,12.76-95.76,38.27-139.8,25.51-44.03,59.02-79.28,100.53-105.75,41.51-26.46,81.7-39.7,120.58-39.7,34.82,0,63.12,10.25,84.89,30.75,21.76,20.5,32.65,47.07,32.65,79.7,0,35.15-12.25,66.11-36.75,92.88-24.5,26.78-52.11,36.81-83.75,33.66-17.41-1.74-29.89-4.83-42.87-14.42-14.17-10.47-11.75-9.93-16.09-16.98-5.21-8.47.97-14.85,2.67-15.59,17.47-7.64,21.37-3.04,16.49,9.4,1.71,3.41-27.68,1.51-16.49-9.4,4.78-4.66,13.59-8.76,18.07-3.14,22.59,28.33,33.37,26.19,54.16,25.45,19.27-.69,49.56-19.34,63.81-47.38,16.03-31.54,16.62-59.05,8.64-83.77-5.63-17.46-19.31-33.99-37.92-44.98-13.99-8.26-34.75-12.67-52.97-12.67-27.34,0-60.32,8.98-90.58,27.77-34.95,21.71-61.38,52.1-86.4,87.89-31.27,44.72-48.9,93.65-50.47,136.99-2.66,73.47,18.61,96.13,25.92,109.86,6.78,8.74,36.55,48.07,103.24,25.75,37.73-12.63,87.48-53.23,123.7-111.18l31.57-1.24c-5.65,20.36.06.02-5.65,20.36-4.14,14.75-5.02,16.59-7.31,23.35-5.65,16.65-17.87,58.28-28.41,96.13,118.33-59.83,486.62,41.93,486.62,41.93h0ZM2663.84,2316.47,2663.84,2316.47"/>
          <g>
            <path class="cls-5" d="M797.66,511.93c.21-.4.04-.87-.37-1.09-31.81-16.8-84.33,3.22-90.18,12.12-5.19,7.9-4.7,9.89-5.11,12.3,0,.02,0,.04,0,.06-1.06,11.45,1.34,20.95,3.12,26.17.04.11.11.22.2.31,3.88,3.96,2.77,3.53,5.56,5.85.03.02.06.04.08.06,7.74,5.27,9.95,4.21,16.17,8.21,3.46,2.23,41.75,17.71,72.02-1.34.4-.25.54-.74.31-1.12-7.68-12.59-25.13-23.23-47.91-27.83-.93-.19-.97-1.35-.06-1.62,22.43-6.65,39.22-18.83,46.18-32.08Z"/>
            <path class="cls-5" d="M877.78,528.78c.21-.29.16-.69-.13-.92-21.6-17.86-64.03-9.23-69.71-2.95-5.03,5.57-4.95,7.23-5.6,9.1,0,.01,0,.03-.01.04-2.42,8.99-1.96,16.9-1.36,21.32.01.1.05.19.1.27,2.36,3.7,1.59,3.21,3.36,5.45.02.02.04.04.05.06,5.08,5.29,6.91,4.75,11.03,8.82,2.29,2.26,28.96,19.97,54.48,9.01.34-.15.51-.52.39-.85-4-11.12-15.64-22.06-32.16-28.91-.67-.28-.54-1.21.18-1.3,17.86-2.17,32.24-9.53,39.37-19.13Z"/>
            <path class="cls-5" d="M953.17,547.03c.22-.24.2-.6-.05-.84-19.13-17.95-59.99-14.22-65.84-9.15-5.19,4.5-5.23,5.99-5.99,7.59,0,.01-.01.02-.02.04-2.97,7.79-3.13,14.9-2.89,18.89,0,.09.03.17.08.25,1.96,3.52,1.26,3.01,2.77,5.17.01.02.03.04.05.06,4.42,5.19,6.19,4.88,9.79,8.89,2,2.23,25.94,20.52,50.96,13.13.33-.1.52-.41.44-.72-2.96-10.29-13.17-21.14-28.31-28.8-.62-.31-.42-1.13.27-1.14,17.09-.27,31.27-5.49,38.75-13.39Z"/>
            <path class="cls-5" d="M1008.1,562.64c.17-.18.15-.45-.04-.62-14.22-13.35-44.61-10.58-48.96-6.8-3.86,3.35-3.89,4.45-4.45,5.65,0,0,0,.02-.01.03-2.21,5.79-2.33,11.08-2.15,14.05,0,.06.03.13.06.19,1.46,2.62.94,2.24,2.06,3.85.01.01.02.03.03.05,3.29,3.86,4.6,3.63,7.28,6.61,1.49,1.66,19.29,15.26,37.89,9.77.25-.07.39-.31.32-.54-2.2-7.65-9.79-15.72-21.05-21.42-.46-.23-.31-.84.2-.85,12.7-.2,23.25-4.08,28.81-9.96Z"/>
            <path class="cls-5" d="M1049.36,576.15c.11-.12.1-.3-.03-.42-9.59-9-30.09-7.13-33.03-4.59-2.6,2.26-2.63,3-3,3.81,0,0,0,.01,0,.02-1.49,3.91-1.57,7.47-1.45,9.48,0,.04.02.09.04.13.98,1.77.63,1.51,1.39,2.6,0,0,.02.02.02.03,2.22,2.61,3.1,2.45,4.91,4.46,1,1.12,13.01,10.3,25.56,6.59.17-.05.26-.21.22-.36-1.48-5.16-6.6-10.6-14.2-14.45-.31-.16-.21-.57.14-.57,8.57-.13,15.69-2.75,19.44-6.72Z"/>
            <path class="cls-5" d="M1085.24,588.37c.09-.09.08-.24-.02-.33-7.59-7.13-23.82-5.65-26.14-3.63-2.06,1.79-2.08,2.38-2.38,3.01,0,0,0,0,0,.01-1.18,3.09-1.24,5.91-1.15,7.5,0,.03.01.07.03.1.78,1.4.5,1.19,1.1,2.05,0,0,.01.02.02.02,1.75,2.06,2.46,1.94,3.89,3.53.79.89,10.3,8.15,20.23,5.21.13-.04.21-.16.17-.29-1.17-4.09-5.23-8.39-11.24-11.43-.24-.12-.17-.45.11-.45,6.78-.11,12.42-2.18,15.38-5.32Z"/>
          </g>
        </g>
        <g>
          <path class="cls-9" d="M2721.28,2316.87,578.32,584.91c-39.71,21.1-111.13,58.37-118.44,94.3-2.28,11.2,8.44,24.32,21.05,24.49,25.51.34,77.1-56.08,97.39-118.79ZM1090.34,598.69s-383.71-91.55-488.73-25.52c-3.24,2.03-15.66,69.88-60.33,113.74-19.74,19.38-25.78,24.34-42.84,30.93-15.13,5.84-31.44,1.81-40.16-3.77-10.34-6.62-14.12-18.94-14.12-32.96,0-38.93,64.31-79.77,137.47-116.39l29.91-104.37c-12.76,19.04-66.54,67.12-90.84,81.76-24.3,14.65-46.88,21.97-67.73,21.97-34.02,0-62.32-15.22-84.89-45.66-22.58-30.44-33.87-68.98-33.87-115.63,0-49.16,12.76-95.76,38.27-139.8,25.51-44.03,59.02-79.28,100.53-105.75,41.51-26.46,81.7-39.7,120.58-39.7,34.82,0,63.12,10.25,84.89,30.75,21.76,20.5,32.65,47.07,32.65,79.7,0,35.15-12.25,66.11-36.75,92.88-24.5,26.78-52.11,36.81-83.75,33.66-17.41-1.74-29.89-4.83-42.87-14.42-14.17-10.47-11.75-9.93-16.09-16.98-5.21-8.47.97-14.85,2.67-15.59,17.47-7.64,21.37-3.04,16.49,9.4,1.71,3.41-27.68,1.51-16.49-9.4,4.78-4.66,13.59-8.76,18.07-3.14,22.59,28.33,33.37,26.19,54.16,25.45,19.27-.69,49.56-19.34,63.81-47.38,16.03-31.54,16.62-59.05,8.64-83.77-5.63-17.46-19.31-33.99-37.92-44.98-13.99-8.26-34.75-12.67-52.97-12.67-27.34,0-60.32,8.98-90.58,27.77-34.95,21.71-61.38,52.1-86.4,87.89-31.27,44.72-48.9,93.65-50.47,136.99-2.66,73.47,18.61,96.13,25.92,109.86,6.78,8.74,36.55,48.07,103.24,25.75,37.73-12.63,87.48-53.23,123.7-111.18l31.57-1.24c-5.65,20.36.06.02-5.65,20.36-4.14,14.75-5.02,16.59-7.31,23.35-5.65,16.65-17.87,58.28-28.41,96.13,118.33-59.83,486.62,41.93,486.62,41.93h0ZM2662.74,2316.87,2662.74,2316.87"/>
          <g>
            <path class="cls-9" d="M796.56,512.33c.21-.4.04-.87-.37-1.09-31.81-16.8-84.33,3.22-90.18,12.12-5.19,7.9-4.7,9.89-5.11,12.3,0,.02,0,.04,0,.06-1.06,11.45,1.34,20.95,3.12,26.17.04.11.11.22.2.31,3.88,3.96,2.77,3.53,5.56,5.85.03.02.06.04.08.06,7.74,5.27,9.95,4.21,16.17,8.21,3.46,2.23,41.75,17.71,72.02-1.34.4-.25.54-.74.31-1.12-7.68-12.59-25.13-23.23-47.91-27.83-.93-.19-.97-1.35-.06-1.62,22.43-6.65,39.22-18.83,46.18-32.08Z"/>
            <path class="cls-9" d="M876.68,529.18c.21-.29.16-.69-.13-.92-21.6-17.86-64.03-9.23-69.71-2.95-5.03,5.57-4.95,7.23-5.6,9.1,0,.01,0,.03-.01.04-2.42,8.99-1.96,16.9-1.36,21.32.01.1.05.19.1.27,2.36,3.7,1.59,3.21,3.36,5.45.02.02.04.04.05.06,5.08,5.29,6.91,4.75,11.03,8.82,2.29,2.26,28.96,19.97,54.48,9.01.34-.15.51-.52.39-.85-4-11.12-15.64-22.06-32.16-28.91-.67-.28-.54-1.21.18-1.3,17.86-2.17,32.24-9.53,39.37-19.13Z"/>
            <path class="cls-9" d="M952.07,547.43c.22-.24.2-.6-.05-.84-19.13-17.95-59.99-14.22-65.84-9.15-5.19,4.5-5.23,5.99-5.99,7.59,0,.01-.01.02-.02.04-2.97,7.79-3.13,14.9-2.89,18.89,0,.09.03.17.08.25,1.96,3.52,1.26,3.01,2.77,5.17.01.02.03.04.05.06,4.42,5.19,6.19,4.88,9.79,8.89,2,2.23,25.94,20.52,50.96,13.13.33-.1.52-.41.44-.72-2.96-10.29-13.17-21.14-28.31-28.8-.62-.31-.42-1.13.27-1.14,17.09-.27,31.27-5.49,38.75-13.39Z"/>
            <path class="cls-9" d="M1007,563.04c.17-.18.15-.45-.04-.62-14.22-13.35-44.61-10.58-48.96-6.8-3.86,3.35-3.89,4.45-4.45,5.65,0,0,0,.02-.01.03-2.21,5.79-2.33,11.08-2.15,14.05,0,.06.03.13.06.19,1.46,2.62.94,2.24,2.06,3.85.01.01.02.03.03.05,3.29,3.86,4.6,3.63,7.28,6.61,1.49,1.66,19.29,15.26,37.89,9.77.25-.07.39-.31.32-.54-2.2-7.65-9.79-15.72-21.05-21.42-.46-.23-.31-.84.2-.85,12.7-.2,23.25-4.08,28.81-9.96Z"/>
            <path class="cls-9" d="M1048.26,576.55c.11-.12.1-.3-.03-.42-9.59-9-30.09-7.13-33.03-4.59-2.6,2.26-2.63,3-3,3.81,0,0,0,.01,0,.02-1.49,3.91-1.57,7.47-1.45,9.48,0,.04.02.09.04.13.98,1.77.63,1.51,1.39,2.6,0,0,.02.02.02.03,2.22,2.61,3.1,2.45,4.91,4.46,1,1.12,13.01,10.3,25.56,6.59.17-.05.26-.21.22-.36-1.48-5.16-6.6-10.6-14.2-14.45-.31-.16-.21-.57.14-.57,8.57-.13,15.69-2.75,19.44-6.72Z"/>
            <path class="cls-9" d="M1084.14,588.77c.09-.09.08-.24-.02-.33-7.59-7.13-23.82-5.65-26.14-3.63-2.06,1.79-2.08,2.38-2.38,3.01,0,0,0,0,0,.01-1.18,3.09-1.24,5.91-1.15,7.5,0,.03.01.07.03.1.78,1.4.5,1.19,1.1,2.05,0,0,.01.02.02.02,1.75,2.06,2.46,1.94,3.89,3.53.79.89,10.3,8.15,20.23,5.21.13-.04.21-.16.17-.29-1.17-4.09-5.23-8.39-11.24-11.43-.24-.12-.17-.45.11-.45,6.78-.11,12.42-2.18,15.38-5.32Z"/>
          </g>
        </g>
        <g>
          <path class="cls-7" d="M2720.18,2317.27,577.22,585.31c-39.71,21.1-111.13,58.37-118.44,94.3-2.28,11.2,8.44,24.32,21.05,24.49,25.51.34,77.1-56.08,97.39-118.79ZM1089.24,599.09s-383.71-91.55-488.73-25.52c-3.24,2.03-15.66,69.88-60.33,113.74-19.74,19.38-25.78,24.34-42.84,30.93-15.13,5.84-31.44,1.81-40.16-3.77-10.34-6.62-14.12-18.94-14.12-32.96,0-38.93,64.31-79.77,137.47-116.39l29.91-104.37c-12.76,19.04-66.54,67.12-90.84,81.76-24.3,14.65-46.88,21.97-67.73,21.97-34.02,0-62.32-15.22-84.89-45.66-22.58-30.44-33.87-68.98-33.87-115.63,0-49.16,12.76-95.76,38.27-139.8,25.51-44.03,59.02-79.28,100.53-105.75,41.51-26.46,81.7-39.7,120.58-39.7,34.82,0,63.12,10.25,84.89,30.75,21.76,20.5,32.65,47.07,32.65,79.7,0,35.15-12.25,66.11-36.75,92.88-24.5,26.78-52.11,36.81-83.75,33.66-17.41-1.74-29.89-4.83-42.87-14.42-14.17-10.47-11.75-9.93-16.09-16.98-5.21-8.47.97-14.85,2.67-15.59,17.47-7.64,21.37-3.04,16.49,9.4,1.71,3.41-27.68,1.51-16.49-9.4,4.78-4.66,13.59-8.76,18.07-3.14,22.59,28.33,33.37,26.19,54.16,25.45,19.27-.69,49.56-19.34,63.81-47.38,16.03-31.54,16.62-59.05,8.64-83.77-5.63-17.46-19.31-33.99-37.92-44.98-13.99-8.26-34.75-12.67-52.97-12.67-27.34,0-60.32,8.98-90.58,27.77-34.95,21.71-61.38,52.1-86.4,87.89-31.27,44.72-48.9,93.65-50.47,136.99-2.66,73.47,18.61,96.13,25.92,109.86,6.78,8.74,36.55,48.07,103.24,25.75,37.73-12.63,87.48-53.23,123.7-111.18l31.57-1.24c-5.65,20.36.06.02-5.65,20.36-4.14,14.75-5.02,16.59-7.31,23.35-5.65,16.65-17.87,58.28-28.41,96.13,118.33-59.83,486.62,41.93,486.62,41.93h0ZM2661.64,2317.27,2661.64,2317.27"/>
          <g>
            <path class="cls-7" d="M795.46,512.73c.21-.4.04-.87-.37-1.09-31.81-16.8-84.33,3.22-90.18,12.12-5.19,7.9-4.7,9.89-5.11,12.3,0,.02,0,.04,0,.06-1.06,11.45,1.34,20.95,3.12,26.17.04.11.11.22.2.31,3.88,3.96,2.77,3.53,5.56,5.85.03.02.06.04.08.06,7.74,5.27,9.95,4.21,16.17,8.21,3.46,2.23,41.75,17.71,72.02-1.34.4-.25.54-.74.31-1.12-7.68-12.59-25.13-23.23-47.91-27.83-.93-.19-.97-1.35-.06-1.62,22.43-6.65,39.22-18.83,46.18-32.08Z"/>
            <path class="cls-7" d="M875.58,529.58c.21-.29.16-.69-.13-.92-21.6-17.86-64.03-9.23-69.71-2.95-5.03,5.57-4.95,7.23-5.6,9.1,0,.01,0,.03-.01.04-2.42,8.99-1.96,16.9-1.36,21.32.01.1.05.19.1.27,2.36,3.7,1.59,3.21,3.36,5.45.02.02.04.04.05.06,5.08,5.29,6.91,4.75,11.03,8.82,2.29,2.26,28.96,19.97,54.48,9.01.34-.15.51-.52.39-.85-4-11.12-15.64-22.06-32.16-28.91-.67-.28-.54-1.21.18-1.3,17.86-2.17,32.24-9.53,39.37-19.13Z"/>
            <path class="cls-7" d="M950.97,547.83c.22-.24.2-.6-.05-.84-19.13-17.95-59.99-14.22-65.84-9.15-5.19,4.5-5.23,5.99-5.99,7.59,0,.01-.01.02-.02.04-2.97,7.79-3.13,14.9-2.89,18.89,0,.09.03.17.08.25,1.96,3.52,1.26,3.01,2.77,5.17.01.02.03.04.05.06,4.42,5.19,6.19,4.88,9.79,8.89,2,2.23,25.94,20.52,50.96,13.13.33-.1.52-.41.44-.72-2.96-10.29-13.17-21.14-28.31-28.8-.62-.31-.42-1.13.27-1.14,17.09-.27,31.27-5.49,38.75-13.39Z"/>
            <path class="cls-7" d="M1005.9,563.44c.17-.18.15-.45-.04-.62-14.22-13.35-44.61-10.58-48.96-6.8-3.86,3.35-3.89,4.45-4.45,5.65,0,0,0,.02-.01.03-2.21,5.79-2.33,11.08-2.15,14.05,0,.06.03.13.06.19,1.46,2.62.94,2.24,2.06,3.85.01.01.02.03.03.05,3.29,3.86,4.6,3.63,7.28,6.61,1.49,1.66,19.29,15.26,37.89,9.77.25-.07.39-.31.32-.54-2.2-7.65-9.79-15.72-21.05-21.42-.46-.23-.31-.84.2-.85,12.7-.2,23.25-4.08,28.81-9.96Z"/>
            <path class="cls-7" d="M1047.16,576.95c.11-.12.1-.3-.03-.42-9.59-9-30.09-7.13-33.03-4.59-2.6,2.26-2.63,3-3,3.81,0,0,0,.01,0,.02-1.49,3.91-1.57,7.47-1.45,9.48,0,.04.02.09.04.13.98,1.77.63,1.51,1.39,2.6,0,0,.02.02.02.03,2.22,2.61,3.1,2.45,4.91,4.46,1,1.12,13.01,10.3,25.56,6.59.17-.05.26-.21.22-.36-1.48-5.16-6.6-10.6-14.2-14.45-.31-.16-.21-.57.14-.57,8.57-.13,15.69-2.75,19.44-6.72Z"/>
            <path class="cls-7" d="M1083.04,589.17c.09-.09.08-.24-.02-.33-7.59-7.13-23.82-5.65-26.14-3.63-2.06,1.79-2.08,2.38-2.38,3.01,0,0,0,0,0,.01-1.18,3.09-1.24,5.91-1.15,7.5,0,.03.01.07.03.1.78,1.4.5,1.19,1.1,2.05,0,0,.01.02.02.02,1.75,2.06,2.46,1.94,3.89,3.53.79.89,10.3,8.15,20.23,5.21.13-.04.21-.16.17-.29-1.17-4.09-5.23-8.39-11.24-11.43-.24-.12-.17-.45.11-.45,6.78-.11,12.42-2.18,15.38-5.32Z"/>
          </g>
        </g>
        <g>
          <path class="cls-3" d="M2719.08,2317.67,576.12,585.71c-39.71,21.1-111.13,58.37-118.44,94.3-2.28,11.2,8.44,24.32,21.05,24.49,25.51.34,77.1-56.08,97.39-118.79ZM1088.14,599.49s-383.71-91.55-488.73-25.52c-3.24,2.03-15.66,69.88-60.33,113.74-19.74,19.38-25.78,24.34-42.84,30.93-15.13,5.84-31.44,1.81-40.16-3.77-10.34-6.62-14.12-18.94-14.12-32.96,0-38.93,64.31-79.77,137.47-116.39l29.91-104.37c-12.76,19.04-66.54,67.12-90.84,81.76-24.3,14.65-46.88,21.97-67.73,21.97-34.02,0-62.32-15.22-84.89-45.66-22.58-30.44-33.87-68.98-33.87-115.63,0-49.16,12.76-95.76,38.27-139.8,25.51-44.03,59.02-79.28,100.53-105.75,41.51-26.46,81.7-39.7,120.58-39.7,34.82,0,63.12,10.25,84.89,30.75,21.76,20.5,32.65,47.07,32.65,79.7,0,35.15-12.25,66.11-36.75,92.88-24.5,26.78-52.11,36.81-83.75,33.66-17.41-1.74-29.89-4.83-42.87-14.42-14.17-10.47-11.75-9.93-16.09-16.98-5.21-8.47.97-14.85,2.67-15.59,17.47-7.64,21.37-3.04,16.49,9.4,1.71,3.41-27.68,1.51-16.49-9.4,4.78-4.66,13.59-8.76,18.07-3.14,22.59,28.33,33.37,26.19,54.16,25.45,19.27-.69,49.56-19.34,63.81-47.38,16.03-31.54,16.62-59.05,8.64-83.77-5.63-17.46-19.31-33.99-37.92-44.98-13.99-8.26-34.75-12.67-52.97-12.67-27.34,0-60.32,8.98-90.58,27.77-34.95,21.71-61.38,52.1-86.4,87.89-31.27,44.72-48.9,93.65-50.47,136.99-2.66,73.47,18.61,96.13,25.92,109.86,6.78,8.74,36.55,48.07,103.24,25.75,37.73-12.63,87.48-53.23,123.7-111.18l31.57-1.24c-5.65,20.36.06.02-5.65,20.36-4.14,14.75-5.02,16.59-7.31,23.35-5.65,16.65-17.87,58.28-28.41,96.13,118.33-59.83,486.62,41.93,486.62,41.93h0ZM2660.54,2317.67,2660.54,2317.67"/>
          <g>
            <path class="cls-3" d="M794.36,513.13c.21-.4.04-.87-.37-1.09-31.81-16.8-84.33,3.22-90.18,12.12-5.19,7.9-4.7,9.89-5.11,12.3,0,.02,0,.04,0,.06-1.06,11.45,1.34,20.95,3.12,26.17.04.11.11.22.2.31,3.88,3.96,2.77,3.53,5.56,5.85.03.02.06.04.08.06,7.74,5.27,9.95,4.21,16.17,8.21,3.46,2.23,41.75,17.71,72.02-1.34.4-.25.54-.74.31-1.12-7.68-12.59-25.13-23.23-47.91-27.83-.93-.19-.97-1.35-.06-1.62,22.43-6.65,39.22-18.83,46.18-32.08Z"/>
            <path class="cls-3" d="M874.48,529.98c.21-.29.16-.69-.13-.92-21.6-17.86-64.03-9.23-69.71-2.95-5.03,5.57-4.95,7.23-5.6,9.1,0,.01,0,.03-.01.04-2.42,8.99-1.96,16.9-1.36,21.32.01.1.05.19.1.27,2.36,3.7,1.59,3.21,3.36,5.45.02.02.04.04.05.06,5.08,5.29,6.91,4.75,11.03,8.82,2.29,2.26,28.96,19.97,54.48,9.01.34-.15.51-.52.39-.85-4-11.12-15.64-22.06-32.16-28.91-.67-.28-.54-1.21.18-1.3,17.86-2.17,32.24-9.53,39.37-19.13Z"/>
            <path class="cls-3" d="M949.87,548.23c.22-.24.2-.6-.05-.84-19.13-17.95-59.99-14.22-65.84-9.15-5.19,4.5-5.23,5.99-5.99,7.59,0,.01-.01.02-.02.04-2.97,7.79-3.13,14.9-2.89,18.89,0,.09.03.17.08.25,1.96,3.52,1.26,3.01,2.77,5.17.01.02.03.04.05.06,4.42,5.19,6.19,4.88,9.79,8.89,2,2.23,25.94,20.52,50.96,13.13.33-.1.52-.41.44-.72-2.96-10.29-13.17-21.14-28.31-28.8-.62-.31-.42-1.13.27-1.14,17.09-.27,31.27-5.49,38.75-13.39Z"/>
            <path class="cls-3" d="M1004.8,563.84c.17-.18.15-.45-.04-.62-14.22-13.35-44.61-10.58-48.96-6.8-3.86,3.35-3.89,4.45-4.45,5.65,0,0,0,.02-.01.03-2.21,5.79-2.33,11.08-2.15,14.05,0,.06.03.13.06.19,1.46,2.62.94,2.24,2.06,3.85.01.01.02.03.03.05,3.29,3.86,4.6,3.63,7.28,6.61,1.49,1.66,19.29,15.26,37.89,9.77.25-.07.39-.31.32-.54-2.2-7.65-9.79-15.72-21.05-21.42-.46-.23-.31-.84.2-.85,12.7-.2,23.25-4.08,28.81-9.96Z"/>
            <path class="cls-3" d="M1046.06,577.35c.11-.12.1-.3-.03-.42-9.59-9-30.09-7.13-33.03-4.59-2.6,2.26-2.63,3-3,3.81,0,0,0,.01,0,.02-1.49,3.91-1.57,7.47-1.45,9.48,0,.04.02.09.04.13.98,1.77.63,1.51,1.39,2.6,0,0,.02.02.02.03,2.22,2.61,3.1,2.45,4.91,4.46,1,1.12,13.01,10.3,25.56,6.59.17-.05.26-.21.22-.36-1.48-5.16-6.6-10.6-14.2-14.45-.31-.16-.21-.57.14-.57,8.57-.13,15.69-2.75,19.44-6.72Z"/>
            <path class="cls-3" d="M1081.94,589.57c.09-.09.08-.24-.02-.33-7.59-7.13-23.82-5.65-26.14-3.63-2.06,1.79-2.08,2.38-2.38,3.01,0,0,0,0,0,.01-1.18,3.09-1.24,5.91-1.15,7.5,0,.03.01.07.03.1.78,1.4.5,1.19,1.1,2.05,0,0,.01.02.02.02,1.75,2.06,2.46,1.94,3.89,3.53.79.89,10.3,8.15,20.23,5.21.13-.04.21-.16.17-.29-1.17-4.09-5.23-8.39-11.24-11.43-.24-.12-.17-.45.11-.45,6.78-.11,12.42-2.18,15.38-5.32Z"/>
          </g>
        </g>
        <g>
          <path class="cls-1" d="M2717.98,2318.07,575.02,586.11c-39.71,21.1-111.13,58.37-118.44,94.3-2.28,11.2,8.44,24.32,21.05,24.49,25.51.34,77.1-56.08,97.39-118.79ZM1087.04,599.89s-383.71-91.55-488.73-25.52c-3.24,2.03-15.66,69.88-60.33,113.74-19.74,19.38-25.78,24.34-42.84,30.93-15.13,5.84-31.44,1.81-40.16-3.77-10.34-6.62-14.12-18.94-14.12-32.96,0-38.93,64.31-79.77,137.47-116.39l29.91-104.37c-12.76,19.04-66.54,67.12-90.84,81.76-24.3,14.65-46.88,21.97-67.73,21.97-34.02,0-62.32-15.22-84.89-45.66-22.58-30.44-33.87-68.98-33.87-115.63,0-49.16,12.76-95.76,38.27-139.8,25.51-44.03,59.02-79.28,100.53-105.75,41.51-26.46,81.7-39.7,120.58-39.7,34.82,0,63.12,10.25,84.89,30.75,21.76,20.5,32.65,47.07,32.65,79.7,0,35.15-12.25,66.11-36.75,92.88-24.5,26.78-52.11,36.81-83.75,33.66-17.41-1.74-29.89-4.83-42.87-14.42-14.17-10.47-11.75-9.93-16.09-16.98-5.21-8.47.97-14.85,2.67-15.59,17.47-7.64,21.37-3.04,16.49,9.4,1.71,3.41-27.68,1.51-16.49-9.4,4.78-4.66,13.59-8.76,18.07-3.14,22.59,28.33,33.37,26.19,54.16,25.45,19.27-.69,49.56-19.34,63.81-47.38,16.03-31.54,16.62-59.05,8.64-83.77-5.63-17.46-19.31-33.99-37.92-44.98-13.99-8.26-34.75-12.67-52.97-12.67-27.34,0-60.32,8.98-90.58,27.77-34.95,21.71-61.38,52.1-86.4,87.89-31.27,44.72-48.9,93.65-50.47,136.99-2.66,73.47,18.61,96.13,25.92,109.86,6.78,8.74,36.55,48.07,103.24,25.75,37.73-12.63,87.48-53.23,123.7-111.18l31.57-1.24c-5.65,20.36.06.02-5.65,20.36-4.14,14.75-5.02,16.59-7.31,23.35-5.65,16.65-17.87,58.28-28.41,96.13,118.33-59.83,486.62,41.93,486.62,41.93h0ZM2659.44,2318.07,2659.44,2318.07"/>
          <g>
            <path class="cls-1" d="M793.26,513.53c.21-.4.04-.87-.37-1.09-31.81-16.8-84.33,3.22-90.18,12.12-5.19,7.9-4.7,9.89-5.11,12.3,0,.02,0,.04,0,.06-1.06,11.45,1.34,20.95,3.12,26.17.04.11.11.22.2.31,3.88,3.96,2.77,3.53,5.56,5.85.03.02.06.04.08.06,7.74,5.27,9.95,4.21,16.17,8.21,3.46,2.23,41.75,17.71,72.02-1.34.4-.25.54-.74.31-1.12-7.68-12.59-25.13-23.23-47.91-27.83-.93-.19-.97-1.35-.06-1.62,22.43-6.65,39.22-18.83,46.18-32.08Z"/>
            <path class="cls-1" d="M873.38,530.38c.21-.29.16-.69-.13-.92-21.6-17.86-64.03-9.23-69.71-2.95-5.03,5.57-4.95,7.23-5.6,9.1,0,.01,0,.03-.01.04-2.42,8.99-1.96,16.9-1.36,21.32.01.1.05.19.1.27,2.36,3.7,1.59,3.21,3.36,5.45.02.02.04.04.05.06,5.08,5.29,6.91,4.75,11.03,8.82,2.29,2.26,28.96,19.97,54.48,9.01.34-.15.51-.52.39-.85-4-11.12-15.64-22.06-32.16-28.91-.67-.28-.54-1.21.18-1.3,17.86-2.17,32.24-9.53,39.37-19.13Z"/>
            <path class="cls-1" d="M948.77,548.63c.22-.24.2-.6-.05-.84-19.13-17.95-59.99-14.22-65.84-9.15-5.19,4.5-5.23,5.99-5.99,7.59,0,.01-.01.02-.02.04-2.97,7.79-3.13,14.9-2.89,18.89,0,.09.03.17.08.25,1.96,3.52,1.26,3.01,2.77,5.17.01.02.03.04.05.06,4.42,5.19,6.19,4.88,9.79,8.89,2,2.23,25.94,20.52,50.96,13.13.33-.1.52-.41.44-.72-2.96-10.29-13.17-21.14-28.31-28.8-.62-.31-.42-1.13.27-1.14,17.09-.27,31.27-5.49,38.75-13.39Z"/>
            <path class="cls-1" d="M1003.7,564.24c.17-.18.15-.45-.04-.62-14.22-13.35-44.61-10.58-48.96-6.8-3.86,3.35-3.89,4.45-4.45,5.65,0,0,0,.02-.01.03-2.21,5.79-2.33,11.08-2.15,14.05,0,.06.03.13.06.19,1.46,2.62.94,2.24,2.06,3.85.01.01.02.03.03.05,3.29,3.86,4.6,3.63,7.28,6.61,1.49,1.66,19.29,15.26,37.89,9.77.25-.07.39-.31.32-.54-2.2-7.65-9.79-15.72-21.05-21.42-.46-.23-.31-.84.2-.85,12.7-.2,23.25-4.08,28.81-9.96Z"/>
            <path class="cls-1" d="M1044.96,577.75c.11-.12.1-.3-.03-.42-9.59-9-30.09-7.13-33.03-4.59-2.6,2.26-2.63,3-3,3.81,0,0,0,.01,0,.02-1.49,3.91-1.57,7.47-1.45,9.48,0,.04.02.09.04.13.98,1.77.63,1.51,1.39,2.6,0,0,.02.02.02.03,2.22,2.61,3.1,2.45,4.91,4.46,1,1.12,13.01,10.3,25.56,6.59.17-.05.26-.21.22-.36-1.48-5.16-6.6-10.6-14.2-14.45-.31-.16-.21-.57.14-.57,8.57-.13,15.69-2.75,19.44-6.72Z"/>
            <path class="cls-1" d="M1080.84,589.97c.09-.09.08-.24-.02-.33-7.59-7.13-23.82-5.65-26.14-3.63-2.06,1.79-2.08,2.38-2.38,3.01,0,0,0,0,0,.01-1.18,3.09-1.24,5.91-1.15,7.5,0,.03.01.07.03.1.78,1.4.5,1.19,1.1,2.05,0,0,.01.02.02.02,1.75,2.06,2.46,1.94,3.89,3.53.79.89,10.3,8.15,20.23,5.21.13-.04.21-.16.17-.29-1.17-4.09-5.23-8.39-11.24-11.43-.24-.12-.17-.45.11-.45,6.78-.11,12.42-2.18,15.38-5.32Z"/>
          </g>
        </g>
        <g>
          <path class="cls-2" d="M2716.88,2318.47,573.92,586.51c-39.71,21.1-111.13,58.37-118.44,94.3-2.28,11.2,8.44,24.32,21.05,24.49,25.51.34,77.1-56.08,97.39-118.79ZM1085.94,600.29s-383.71-91.55-488.73-25.52c-3.24,2.03-15.66,69.88-60.33,113.74-19.74,19.38-25.78,24.34-42.84,30.93-15.13,5.84-31.44,1.81-40.16-3.77-10.34-6.62-14.12-18.94-14.12-32.96,0-38.93,64.31-79.77,137.47-116.39l29.91-104.37c-12.76,19.04-66.54,67.12-90.84,81.76-24.3,14.65-46.88,21.97-67.73,21.97-34.02,0-62.32-15.22-84.89-45.66-22.58-30.44-33.87-68.98-33.87-115.63,0-49.16,12.76-95.76,38.27-139.8,25.51-44.03,59.02-79.28,100.53-105.75,41.51-26.46,81.7-39.7,120.58-39.7,34.82,0,63.12,10.25,84.89,30.75,21.76,20.5,32.65,47.07,32.65,79.7,0,35.15-12.25,66.11-36.75,92.88-24.5,26.78-52.11,36.81-83.75,33.66-17.41-1.74-29.89-4.83-42.87-14.42-14.17-10.47-11.75-9.93-16.09-16.98-5.21-8.47.97-14.85,2.67-15.59,17.47-7.64,21.37-3.04,16.49,9.4,1.71,3.41-27.68,1.51-16.49-9.4,4.78-4.66,13.59-8.76,18.07-3.14,22.59,28.33,33.37,26.19,54.16,25.45,19.27-.69,49.56-19.34,63.81-47.38,16.03-31.54,16.62-59.05,8.64-83.77-5.63-17.46-19.31-33.99-37.92-44.98-13.99-8.26-34.75-12.67-52.97-12.67-27.34,0-60.32,8.98-90.58,27.77-34.95,21.71-61.38,52.1-86.4,87.89-31.27,44.72-48.9,93.65-50.47,136.99-2.66,73.47,18.61,96.13,25.92,109.86,6.78,8.74,36.55,48.07,103.24,25.75,37.73-12.63,87.48-53.23,123.7-111.18l31.57-1.24c-5.65,20.36.06.02-5.65,20.36-4.14,14.75-5.02,16.59-7.31,23.35-5.65,16.65-17.87,58.28-28.41,96.13,118.33-59.83,486.62,41.93,486.62,41.93h0ZM2658.34,2318.47,2658.34,2318.47"/>
          <g>
            <path class="cls-2" d="M792.16,513.93c.21-.4.04-.87-.37-1.09-31.81-16.8-84.33,3.22-90.18,12.12-5.19,7.9-4.7,9.89-5.11,12.3,0,.02,0,.04,0,.06-1.06,11.45,1.34,20.95,3.12,26.17.04.11.11.22.2.31,3.88,3.96,2.77,3.53,5.56,5.85.03.02.06.04.08.06,7.74,5.27,9.95,4.21,16.17,8.21,3.46,2.23,41.75,17.71,72.02-1.34.4-.25.54-.74.31-1.12-7.68-12.59-25.13-23.23-47.91-27.83-.93-.19-.97-1.35-.06-1.62,22.43-6.65,39.22-18.83,46.18-32.08Z"/>
            <path class="cls-2" d="M872.28,530.78c.21-.29.16-.69-.13-.92-21.6-17.86-64.03-9.23-69.71-2.95-5.03,5.57-4.95,7.23-5.6,9.1,0,.01,0,.03-.01.04-2.42,8.99-1.96,16.9-1.36,21.32.01.1.05.19.1.27,2.36,3.7,1.59,3.21,3.36,5.45.02.02.04.04.05.06,5.08,5.29,6.91,4.75,11.03,8.82,2.29,2.26,28.96,19.97,54.48,9.01.34-.15.51-.52.39-.85-4-11.12-15.64-22.06-32.16-28.91-.67-.28-.54-1.21.18-1.3,17.86-2.17,32.24-9.53,39.37-19.13Z"/>
            <path class="cls-2" d="M947.67,549.03c.22-.24.2-.6-.05-.84-19.13-17.95-59.99-14.22-65.84-9.15-5.19,4.5-5.23,5.99-5.99,7.59,0,.01-.01.02-.02.04-2.97,7.79-3.13,14.9-2.89,18.89,0,.09.03.17.08.25,1.96,3.52,1.26,3.01,2.77,5.17.01.02.03.04.05.06,4.42,5.19,6.19,4.88,9.79,8.89,2,2.23,25.94,20.52,50.96,13.13.33-.1.52-.41.44-.72-2.96-10.29-13.17-21.14-28.31-28.8-.62-.31-.42-1.13.27-1.14,17.09-.27,31.27-5.49,38.75-13.39Z"/>
            <path class="cls-2" d="M1002.6,564.64c.17-.18.15-.45-.04-.62-14.22-13.35-44.61-10.58-48.96-6.8-3.86,3.35-3.89,4.45-4.45,5.65,0,0,0,.02-.01.03-2.21,5.79-2.33,11.08-2.15,14.05,0,.06.03.13.06.19,1.46,2.62.94,2.24,2.06,3.85.01.01.02.03.03.05,3.29,3.86,4.6,3.63,7.28,6.61,1.49,1.66,19.29,15.26,37.89,9.77.25-.07.39-.31.32-.54-2.2-7.65-9.79-15.72-21.05-21.42-.46-.23-.31-.84.2-.85,12.7-.2,23.25-4.08,28.81-9.96Z"/>
            <path class="cls-2" d="M1043.86,578.15c.11-.12.1-.3-.03-.42-9.59-9-30.09-7.13-33.03-4.59-2.6,2.26-2.63,3-3,3.81,0,0,0,.01,0,.02-1.49,3.91-1.57,7.47-1.45,9.48,0,.04.02.09.04.13.98,1.77.63,1.51,1.39,2.6,0,0,.02.02.02.03,2.22,2.61,3.1,2.45,4.91,4.46,1,1.12,13.01,10.3,25.56,6.59.17-.05.26-.21.22-.36-1.48-5.16-6.6-10.6-14.2-14.45-.31-.16-.21-.57.14-.57,8.57-.13,15.69-2.75,19.44-6.72Z"/>
            <path class="cls-2" d="M1079.74,590.37c.09-.09.08-.24-.02-.33-7.59-7.13-23.82-5.65-26.14-3.63-2.06,1.79-2.08,2.38-2.38,3.01,0,0,0,0,0,.01-1.18,3.09-1.24,5.91-1.15,7.5,0,.03.01.07.03.1.78,1.4.5,1.19,1.1,2.05,0,0,.01.02.02.02,1.75,2.06,2.46,1.94,3.89,3.53.79.89,10.3,8.15,20.23,5.21.13-.04.21-.16.17-.29-1.17-4.09-5.23-8.39-11.24-11.43-.24-.12-.17-.45.11-.45,6.78-.11,12.42-2.18,15.38-5.32Z"/>
          </g>
        </g>
        <g>
          <path class="cls-11" d="M2715.78,2318.87,572.82,586.91c-39.71,21.1-111.13,58.37-118.44,94.3-2.28,11.2,8.44,24.32,21.05,24.49,25.51.34,77.1-56.08,97.39-118.79ZM1084.84,600.69s-383.71-91.55-488.73-25.52c-3.24,2.03-15.66,69.88-60.33,113.74-19.74,19.38-25.78,24.34-42.84,30.93-15.13,5.84-31.44,1.81-40.16-3.77-10.34-6.62-14.12-18.94-14.12-32.96,0-38.93,64.31-79.77,137.47-116.39l29.91-104.37c-12.76,19.04-66.54,67.12-90.84,81.76-24.3,14.65-46.88,21.97-67.73,21.97-34.02,0-62.32-15.22-84.89-45.66-22.58-30.44-33.87-68.98-33.87-115.63,0-49.16,12.76-95.76,38.27-139.8,25.51-44.03,59.02-79.28,100.53-105.75,41.51-26.46,81.7-39.7,120.58-39.7,34.82,0,63.12,10.25,84.89,30.75,21.76,20.5,32.65,47.07,32.65,79.7,0,35.15-12.25,66.11-36.75,92.88-24.5,26.78-52.11,36.81-83.75,33.66-17.41-1.74-29.89-4.83-42.87-14.42-14.17-10.47-11.75-9.93-16.09-16.98-5.21-8.47.97-14.85,2.67-15.59,17.47-7.64,21.37-3.04,16.49,9.4,1.71,3.41-27.68,1.51-16.49-9.4,4.78-4.66,13.59-8.76,18.07-3.14,22.59,28.33,33.37,26.19,54.16,25.45,19.27-.69,49.56-19.34,63.81-47.38,16.03-31.54,16.62-59.05,8.64-83.77-5.63-17.46-19.31-33.99-37.92-44.98-13.99-8.26-34.75-12.67-52.97-12.67-27.34,0-60.32,8.98-90.58,27.77-34.95,21.71-61.38,52.1-86.4,87.89-31.27,44.72-48.9,93.65-50.47,136.99-2.66,73.47,18.61,96.13,25.92,109.86,6.78,8.74,36.55,48.07,103.24,25.75,37.73-12.63,87.48-53.23,123.7-111.18l31.57-1.24c-5.65,20.36.06.02-5.65,20.36-4.14,14.75-5.02,16.59-7.31,23.35-5.65,16.65-17.87,58.28-28.41,96.13,118.33-59.83,486.62,41.93,486.62,41.93h0ZM2657.24,2318.87,2657.24,2318.87"/>
          <g>
            <path class="cls-11" d="M791.06,514.33c.21-.4.04-.87-.37-1.09-31.81-16.8-84.33,3.22-90.18,12.12-5.19,7.9-4.7,9.89-5.11,12.3,0,.02,0,.04,0,.06-1.06,11.45,1.34,20.95,3.12,26.17.04.11.11.22.2.31,3.88,3.96,2.77,3.53,5.56,5.85.03.02.06.04.08.06,7.74,5.27,9.95,4.21,16.17,8.21,3.46,2.23,41.75,17.71,72.02-1.34.4-.25.54-.74.31-1.12-7.68-12.59-25.13-23.23-47.91-27.83-.93-.19-.97-1.35-.06-1.62,22.43-6.65,39.22-18.83,46.18-32.08Z"/>
            <path class="cls-11" d="M871.18,531.18c.21-.29.16-.69-.13-.92-21.6-17.86-64.03-9.23-69.71-2.95-5.03,5.57-4.95,7.23-5.6,9.1,0,.01,0,.03-.01.04-2.42,8.99-1.96,16.9-1.36,21.32.01.1.05.19.1.27,2.36,3.7,1.59,3.21,3.36,5.45.02.02.04.04.05.06,5.08,5.29,6.91,4.75,11.03,8.82,2.29,2.26,28.96,19.97,54.48,9.01.34-.15.51-.52.39-.85-4-11.12-15.64-22.06-32.16-28.91-.67-.28-.54-1.21.18-1.3,17.86-2.17,32.24-9.53,39.37-19.13Z"/>
            <path class="cls-11" d="M946.57,549.43c.22-.24.2-.6-.05-.84-19.13-17.95-59.99-14.22-65.84-9.15-5.19,4.5-5.23,5.99-5.99,7.59,0,.01-.01.02-.02.04-2.97,7.79-3.13,14.9-2.89,18.89,0,.09.03.17.08.25,1.96,3.52,1.26,3.01,2.77,5.17.01.02.03.04.05.06,4.42,5.19,6.19,4.88,9.79,8.89,2,2.23,25.94,20.52,50.96,13.13.33-.1.52-.41.44-.72-2.96-10.29-13.17-21.14-28.31-28.8-.62-.31-.42-1.13.27-1.14,17.09-.27,31.27-5.49,38.75-13.39Z"/>
            <path class="cls-11" d="M1001.5,565.04c.17-.18.15-.45-.04-.62-14.22-13.35-44.61-10.58-48.96-6.8-3.86,3.35-3.89,4.45-4.45,5.65,0,0,0,.02-.01.03-2.21,5.79-2.33,11.08-2.15,14.05,0,.06.03.13.06.19,1.46,2.62.94,2.24,2.06,3.85.01.01.02.03.03.05,3.29,3.86,4.6,3.63,7.28,6.61,1.49,1.66,19.29,15.26,37.89,9.77.25-.07.39-.31.32-.54-2.2-7.65-9.79-15.72-21.05-21.42-.46-.23-.31-.84.2-.85,12.7-.2,23.25-4.08,28.81-9.96Z"/>
            <path class="cls-11" d="M1042.76,578.55c.11-.12.1-.3-.03-.42-9.59-9-30.09-7.13-33.03-4.59-2.6,2.26-2.63,3-3,3.81,0,0,0,.01,0,.02-1.49,3.91-1.57,7.47-1.45,9.48,0,.04.02.09.04.13.98,1.77.63,1.51,1.39,2.6,0,0,.02.02.02.03,2.22,2.61,3.1,2.45,4.91,4.46,1,1.12,13.01,10.3,25.56,6.59.17-.05.26-.21.22-.36-1.48-5.16-6.6-10.6-14.2-14.45-.31-.16-.21-.57.14-.57,8.57-.13,15.69-2.75,19.44-6.72Z"/>
            <path class="cls-11" d="M1078.64,590.77c.09-.09.08-.24-.02-.33-7.59-7.13-23.82-5.65-26.14-3.63-2.06,1.79-2.08,2.38-2.38,3.01,0,0,0,0,0,.01-1.18,3.09-1.24,5.91-1.15,7.5,0,.03.01.07.03.1.78,1.4.5,1.19,1.1,2.05,0,0,.01.02.02.02,1.75,2.06,2.46,1.94,3.89,3.53.79.89,10.3,8.15,20.23,5.21.13-.04.21-.16.17-.29-1.17-4.09-5.23-8.39-11.24-11.43-.24-.12-.17-.45.11-.45,6.78-.11,12.42-2.18,15.38-5.32Z"/>
          </g>
        </g>
        <g>
          <path class="cls-8" d="M2714.68,2319.27,571.72,587.31c-39.71,21.1-111.13,58.37-118.44,94.3-2.28,11.2,8.44,24.32,21.05,24.49,25.51.34,77.1-56.08,97.39-118.79ZM1083.74,601.09s-383.71-91.55-488.73-25.52c-3.24,2.03-15.66,69.88-60.33,113.74-19.74,19.38-25.78,24.34-42.84,30.93-15.13,5.84-31.44,1.81-40.16-3.77-10.34-6.62-14.12-18.94-14.12-32.96,0-38.93,64.31-79.77,137.47-116.39l29.91-104.37c-12.76,19.04-66.54,67.12-90.84,81.76-24.3,14.65-46.88,21.97-67.73,21.97-34.02,0-62.32-15.22-84.89-45.66-22.58-30.44-33.87-68.98-33.87-115.63,0-49.16,12.76-95.76,38.27-139.8,25.51-44.03,59.02-79.28,100.53-105.75,41.51-26.46,81.7-39.7,120.58-39.7,34.82,0,63.12,10.25,84.89,30.75,21.76,20.5,32.65,47.07,32.65,79.7,0,35.15-12.25,66.11-36.75,92.88-24.5,26.78-52.11,36.81-83.75,33.66-17.41-1.74-29.89-4.83-42.87-14.42-14.17-10.47-11.75-9.93-16.09-16.98-5.21-8.47.97-14.85,2.67-15.59,17.47-7.64,21.37-3.04,16.49,9.4,1.71,3.41-27.68,1.51-16.49-9.4,4.78-4.66,13.59-8.76,18.07-3.14,22.59,28.33,33.37,26.19,54.16,25.45,19.27-.69,49.56-19.34,63.81-47.38,16.03-31.54,16.62-59.05,8.64-83.77-5.63-17.46-19.31-33.99-37.92-44.98-13.99-8.26-34.75-12.67-52.97-12.67-27.34,0-60.32,8.98-90.58,27.77-34.95,21.71-61.38,52.1-86.4,87.89-31.27,44.72-48.9,93.65-50.47,136.99-2.66,73.47,18.61,96.13,25.92,109.86,6.78,8.74,36.55,48.07,103.24,25.75,37.73-12.63,87.48-53.23,123.7-111.18l31.57-1.24c-5.65,20.36.06.02-5.65,20.36-4.14,14.75-5.02,16.59-7.31,23.35-5.65,16.65-17.87,58.28-28.41,96.13,118.33-59.83,486.62,41.93,486.62,41.93h0ZM2656.14,2319.27,2656.14,2319.27"/>
          <g>
            <path class="cls-8" d="M789.96,514.73c.21-.4.04-.87-.37-1.09-31.81-16.8-84.33,3.22-90.18,12.12-5.19,7.9-4.7,9.89-5.11,12.3,0,.02,0,.04,0,.06-1.06,11.45,1.34,20.95,3.12,26.17.04.11.11.22.2.31,3.88,3.96,2.77,3.53,5.56,5.85.03.02.06.04.08.06,7.74,5.27,9.95,4.21,16.17,8.21,3.46,2.23,41.75,17.71,72.02-1.34.4-.25.54-.74.31-1.12-7.68-12.59-25.13-23.23-47.91-27.83-.93-.19-.97-1.35-.06-1.62,22.43-6.65,39.22-18.83,46.18-32.08Z"/>
            <path class="cls-8" d="M870.08,531.58c.21-.29.16-.69-.13-.92-21.6-17.86-64.03-9.23-69.71-2.95-5.03,5.57-4.95,7.23-5.6,9.1,0,.01,0,.03-.01.04-2.42,8.99-1.96,16.9-1.36,21.32.01.1.05.19.1.27,2.36,3.7,1.59,3.21,3.36,5.45.02.02.04.04.05.06,5.08,5.29,6.91,4.75,11.03,8.82,2.29,2.26,28.96,19.97,54.48,9.01.34-.15.51-.52.39-.85-4-11.12-15.64-22.06-32.16-28.91-.67-.28-.54-1.21.18-1.3,17.86-2.17,32.24-9.53,39.37-19.13Z"/>
            <path class="cls-8" d="M945.47,549.83c.22-.24.2-.6-.05-.84-19.13-17.95-59.99-14.22-65.84-9.15-5.19,4.5-5.23,5.99-5.99,7.59,0,.01-.01.02-.02.04-2.97,7.79-3.13,14.9-2.89,18.89,0,.09.03.17.08.25,1.96,3.52,1.26,3.01,2.77,5.17.01.02.03.04.05.06,4.42,5.19,6.19,4.88,9.79,8.89,2,2.23,25.94,20.52,50.96,13.13.33-.1.52-.41.44-.72-2.96-10.29-13.17-21.14-28.31-28.8-.62-.31-.42-1.13.27-1.14,17.09-.27,31.27-5.49,38.75-13.39Z"/>
            <path class="cls-8" d="M1000.4,565.44c.17-.18.15-.45-.04-.62-14.22-13.35-44.61-10.58-48.96-6.8-3.86,3.35-3.89,4.45-4.45,5.65,0,0,0,.02-.01.03-2.21,5.79-2.33,11.08-2.15,14.05,0,.06.03.13.06.19,1.46,2.62.94,2.24,2.06,3.85.01.01.02.03.03.05,3.29,3.86,4.6,3.63,7.28,6.61,1.49,1.66,19.29,15.26,37.89,9.77.25-.07.39-.31.32-.54-2.2-7.65-9.79-15.72-21.05-21.42-.46-.23-.31-.84.2-.85,12.7-.2,23.25-4.08,28.81-9.96Z"/>
            <path class="cls-8" d="M1041.66,578.95c.11-.12.1-.3-.03-.42-9.59-9-30.09-7.13-33.03-4.59-2.6,2.26-2.63,3-3,3.81,0,0,0,.01,0,.02-1.49,3.91-1.57,7.47-1.45,9.48,0,.04.02.09.04.13.98,1.77.63,1.51,1.39,2.6,0,0,.02.02.02.03,2.22,2.61,3.1,2.45,4.91,4.46,1,1.12,13.01,10.3,25.56,6.59.17-.05.26-.21.22-.36-1.48-5.16-6.6-10.6-14.2-14.45-.31-.16-.21-.57.14-.57,8.57-.13,15.69-2.75,19.44-6.72Z"/>
            <path class="cls-8" d="M1077.54,591.17c.09-.09.08-.24-.02-.33-7.59-7.13-23.82-5.65-26.14-3.63-2.06,1.79-2.08,2.38-2.38,3.01,0,0,0,0,0,.01-1.18,3.09-1.24,5.91-1.15,7.5,0,.03.01.07.03.1.78,1.4.5,1.19,1.1,2.05,0,0,.01.02.02.02,1.75,2.06,2.46,1.94,3.89,3.53.79.89,10.3,8.15,20.23,5.21.13-.04.21-.16.17-.29-1.17-4.09-5.23-8.39-11.24-11.43-.24-.12-.17-.45.11-.45,6.78-.11,12.42-2.18,15.38-5.32Z"/>
          </g>
        </g>
      </g>
    </g>
  </g>
</svg>